<?xml version="1.0" standalone="no"?>
<!DOCTYPE svg PUBLIC "-//W3C//DTD SVG 20010904//EN"
 "http://www.w3.org/TR/2001/REC-SVG-20010904/DTD/svg10.dtd">
<svg version="1.0" xmlns="http://www.w3.org/2000/svg"
 width="921.000000pt" height="921.000000pt" viewBox="0 0 921.000000 921.000000"
 preserveAspectRatio="xMidYMid meet">
<metadata>
Created by potrace 1.11, written by Peter Selinger 2001-2013
</metadata>
<g transform="translate(0.000000,921.000000) scale(0.100000,-0.100000)"
fill="#000000" stroke="none">
<path d="M4597 7994 c-1 -1 -56 -5 -122 -8 -135 -8 -169 -11 -275 -27 -67 -10
-302 -54 -340 -65 -34 -9 -166 -47 -180 -52 -8 -3 -17 -6 -20 -7 -3 -1 -12 -5
-20 -8 -8 -3 -44 -16 -80 -28 -135 -45 -283 -114 -538 -248 -39 -21 -270 -174
-317 -210 -22 -17 -44 -34 -50 -38 -167 -129 -385 -338 -500 -480 -38 -47 -75
-91 -80 -97 -28 -29 -135 -181 -198 -280 -81 -128 -218 -392 -266 -516 -32
-81 -99 -269 -106 -300 -3 -8 -12 -42 -21 -75 -9 -33 -17 -67 -19 -75 -2 -8
-8 -35 -14 -60 -7 -25 -14 -54 -16 -65 -7 -27 -42 -259 -49 -320 -18 -158 -24
-455 -12 -585 4 -41 9 -94 11 -116 8 -85 36 -259 60 -375 61 -300 247 -763
395 -989 6 -8 13 -22 17 -30 4 -8 9 -17 12 -20 3 -3 33 -45 65 -95 166 -254
445 -556 676 -735 25 -19 47 -37 50 -40 20 -23 268 -189 380 -254 81 -48 323
-164 415 -199 171 -66 378 -131 490 -153 11 -2 43 -8 70 -14 28 -5 65 -12 84
-15 19 -3 37 -7 40 -9 3 -2 35 -7 71 -11 36 -3 79 -8 95 -11 105 -15 473 -24
595 -14 135 10 362 40 425 55 11 2 50 11 88 19 149 33 352 96 502 156 87 35
352 164 425 206 65 38 319 209 359 241 368 299 594 553 815 912 51 83 206 380
206 395 0 3 11 30 25 60 26 58 131 364 138 406 3 14 10 43 15 65 12 43 38 167
47 225 3 19 8 42 10 50 2 8 7 47 11 85 3 39 8 72 9 75 7 12 18 248 17 375 -1
159 -12 340 -28 435 -5 33 -23 138 -29 175 -9 51 -36 166 -62 260 -14 50 -27
97 -29 105 -7 28 -74 215 -88 245 -8 17 -24 53 -35 82 -18 46 -122 253 -176
351 -47 84 -192 296 -262 383 -280 345 -575 602 -938 815 -112 66 -392 204
-413 204 -6 0 -50 17 -157 60 -11 5 -38 14 -60 20 -22 6 -46 13 -53 15 -7 3
-14 5 -17 5 -3 0 -23 7 -45 15 -22 8 -44 15 -48 15 -4 0 -25 5 -47 11 -40 11
-157 37 -205 45 -118 21 -151 26 -190 31 -25 3 -58 6 -75 8 -116 13 -429 26
-438 19z"/>
</g>
</svg>
